#!OML:ASF F:\VICON\USERDATA\INSTALL\rory3\rory3.ASF
:FULLY-SPECIFIED
:DEGREES
521
root 2.09106 25.599 -1.08028 -162.182 -24.2769 -182.128
lowerback 8.68589 -1.86925 -5.76052
upperback 2.33226 -3.12829 0.080126
thorax -2.13208 -1.60729 3.63638
lowerneck -17.4965 1.80302 -10.2705
upperneck 38.8426 1.98478 2.51829
head 16.8998 -1.40485 3.01287
rclavicle 1.66979e-014 -3.18055e-015
rhumerus -21.6983 -16.5116 -62.94
rradius 111.526
rwrist -22.6056
rhand -28.3349 5.93478
rfingers 7.12502
rthumb -1.7094 -24.0381
lclavicle 1.66979e-014 -3.18055e-015
lhumerus 4.83725 -24.5967 82.9273
lradius 72.8279
lwrist 17.1415
lhand -20.7628 22.2908
lfingers 7.12502
lthumb 5.60334 52.1967
rfemur -21.5195 -1.97552 19.1819
rtibia 12.7696
rfoot 2.09812 -32.9926
rtoes 30.9696
lfemur -61.5848 7.34458 -30.1759
ltibia 76.4045
lfoot -20.8422 -18.153
ltoes -2.12406
522
root 2.05599 25.6613 -1.0906 -162.211 -23.7152 -181.994
lowerback 8.59429 -1.80282 -5.78413
upperback 2.2887 -3.03707 0.0265527
thorax -2.13779 -1.55982 3.58249
lowerneck -17.5545 1.84469 -10.2559
upperneck 38.8951 2.03653 2.51354
head 16.9376 -1.39133 3.01787
rclavicle -3.39922e-014 4.92986e-014
rhumerus -20.7927 -16.4279 -62.7978
rradius 111.963
rwrist -22.241
rhand -28.3494 5.81114
rfingers 7.12502
rthumb -1.72337 -24.1616
lclavicle -3.39922e-014 4.92986e-014
lhumerus 4.5605 -24.7019 82.8405
lradius 72.4527
lwrist 16.9772
lhand -20.7345 22.364
lfingers 7.12502
lthumb 5.63067 52.2692
rfemur -22.0477 -2.28028 19.2856
rtibia 13.9374
rfoot 2.31418 -32.0477
rtoes 29.06
lfemur -60.9578 7.53048 -30.1351
ltibia 75.5541
lfoot -21.0471 -17.765
ltoes -2.08578
523
root 2.02275 25.7189 -1.10006 -162.111 -23.1965 -181.722
lowerback 8.30632 -1.77244 -5.72094
upperback 2.18765 -2.96602 0.036369
thorax -2.09299 -1.51995 3.54017
lowerneck -17.6466 1.9107 -10.2022
upperneck 39.0891 2.10695 2.44344
head 17.0617 -1.3915 2.9908
rclavicle -1.15295e-014 1.47101e-014
rhumerus -19.8432 -16.2718 -62.7001
rradius 112.322
rwrist -21.8762
rhand -28.2556 5.76049
rfingers 7.12502
rthumb -1.63276 -24.213
lclavicle -1.15295e-014 1.47101e-014
lhumerus 4.16888 -24.668 82.8455
lradius 72.1061
lwrist 16.9143
lhand -20.6542 22.2183
lfingers 7.12502
lthumb 5.70817 52.1214
rfemur -22.761 -2.62237 19.5786
rtibia 15.0969
rfoot 2.51548 -30.9663
rtoes 26.6027
lfemur -60.5904 7.69495 -29.9845
ltibia 74.7509
lfoot -21.3077 -17.2911
ltoes -2.22509
524
root 1.98909 25.7848 -1.11309 -161.902 -22.6757 -181.435
lowerback 7.90538 -1.76995 -5.59225
upperback 2.02166 -2.91715 0.0431251
thorax -2.05366 -1.48772 3.45696
lowerneck -17.633 2.02968 -10.1607
upperneck 39.1322 2.26333 2.40598
head 17.0674 -1.33862 2.99304
rclavicle -2.50469e-014 1.35174e-014
rhumerus -18.8803 -16.0358 -62.6332
rradius 112.586
rwrist -21.5592
rhand -28.2466 5.25976
rfingers 7.12502
rthumb -1.62409 -24.7138
lclavicle -2.50469e-014 1.35174e-014
lhumerus 3.64978 -24.538 82.9268
lradius 71.7669
lwrist 16.8906
lhand -20.6779 21.7554
lfingers 7.12502
lthumb 5.68536 51.6591
rfemur -23.5179 -2.86211 19.868
rtibia 16.2375
rfoot 2.33084 -29.82
rtoes 25.0321
lfemur -60.3417 7.82451 -29.8273
ltibia 73.9178
lfoot -21.5259 -16.746
ltoes -2.90094
525
root 1.95736 25.8543 -1.12274 -161.869 -22.1872 -181.239
lowerback 7.70692 -1.78114 -5.60055
upperback 1.97777 -2.91573 0.0805324
thorax -1.98652 -1.48624 3.49237
lowerneck -17.6412 2.11324 -10.251
upperneck 39.0464 2.42478 2.43063
head 17.005 -1.27806 3.04734
rclavicle -4.45278e-014 -3.18055e-015
rhumerus -17.6551 -15.733 -62.5926
rradius 112.709
rwrist -21.3602
rhand -28.3146 4.9791
rfingers 7.12502
rthumb -1.68975 -24.994
lclavicle -4.45278e-014 -3.18055e-015
lhumerus 3.28365 -24.2875 83.006
lradius 71.3493
lwrist 16.742
lhand -20.7486 21.4178
lfingers 7.12502
lthumb 5.61706 51.3233
rfemur -24.0021 -3.11072 20.071
rtibia 17.3703
rfoot 2.38144 -28.5314
rtoes 24.1705
lfemur -59.8411 7.95333 -29.7162
ltibia 73.0316
lfoot -21.7078 -16.2474
ltoes -3.86876
